<?xml version="1.0" standalone="no"?>
<svg xmlns="http://www.w3.org/2000/svg" viewBox="0 0 180.821 29" width="180.821" height="29"><g fill="#000000" color="#000000" transform="translate(0, 0) scale(0.0566407)"><svg width="512.0" height="512.0" x="0.0" y="0.0" viewBox="0 0 512 512"><g><g><g><path d="M396,496H116c-5.523,0-10-4.478-10-10V26c0-5.523,4.477-10,10-10h280c5.522,0,10,4.477,10,10v460     C406,491.522,401.522,496,396,496z M126,476h260V36H126V476z"></path></g><g><path d="M356,456H156c-5.523,0-10-4.478-10-10V66c0-5.523,4.477-10,10-10h200c5.522,0,10,4.477,10,10v380     C366,451.522,361.522,456,356,456z M166,436h180V76H166V436z"></path></g><g><path d="M446,86h-50c-5.522,0-10-4.477-10-10V36c0-5.523,4.478-10,10-10h50c5.522,0,10,4.477,10,10v40     C456,81.523,451.522,86,446,86z M406,66h30V46h-30V66z"></path></g><g><path d="M446,166h-50c-5.522,0-10-4.477-10-10v-40c0-5.523,4.478-10,10-10h50c5.522,0,10,4.477,10,10v40     C456,161.523,451.522,166,446,166z M406,146h30v-20h-30V146z"></path></g><g><path d="M446,246h-50c-5.522,0-10-4.477-10-10v-40c0-5.523,4.478-10,10-10h50c5.522,0,10,4.477,10,10v40     C456,241.523,451.522,246,446,246z M406,226h30v-20h-30V226z"></path></g><g><path d="M446,326h-50c-5.522,0-10-4.478-10-10v-40c0-5.522,4.478-10,10-10h50c5.522,0,10,4.478,10,10v40     C456,321.522,451.522,326,446,326z M406,306h30v-20h-30V306z"></path></g><g><path d="M446,406h-50c-5.522,0-10-4.478-10-10v-40c0-5.522,4.478-10,10-10h50c5.522,0,10,4.478,10,10v40     C456,401.522,451.522,406,446,406z M406,386h30v-20h-30V386z"></path></g><g><path d="M446,486h-50c-5.522,0-10-4.478-10-10v-40c0-5.522,4.478-10,10-10h50c5.522,0,10,4.478,10,10v40     C456,481.522,451.522,486,446,486z M406,466h30v-20h-30V466z"></path></g><g><path d="M486,66h-40c-5.522,0-10-4.477-10-10s4.478-10,10-10h40c5.522,0,10,4.477,10,10S491.522,66,486,66z"></path></g><g><path d="M486,146h-40c-5.522,0-10-4.477-10-10s4.478-10,10-10h40c5.522,0,10,4.477,10,10S491.522,146,486,146z"></path></g><g><path d="M486,226h-40c-5.522,0-10-4.477-10-10s4.478-10,10-10h40c5.522,0,10,4.477,10,10S491.522,226,486,226z"></path></g><g><path d="M486,306h-40c-5.522,0-10-4.478-10-10s4.478-10,10-10h40c5.522,0,10,4.478,10,10S491.522,306,486,306z"></path></g><g><path d="M486,386h-40c-5.522,0-10-4.478-10-10s4.478-10,10-10h40c5.522,0,10,4.478,10,10S491.522,386,486,386z"></path></g><g><path d="M486,466h-40c-5.522,0-10-4.478-10-10s4.478-10,10-10h40c5.522,0,10,4.478,10,10S491.522,466,486,466z"></path></g><g><path d="M116,86H66c-5.523,0-10-4.477-10-10V36c0-5.523,4.477-10,10-10h50c5.523,0,10,4.477,10,10v40     C126,81.523,121.523,86,116,86z M76,66h30V46H76V66z"></path></g><g><path d="M116,166H66c-5.523,0-10-4.477-10-10v-40c0-5.523,4.477-10,10-10h50c5.523,0,10,4.477,10,10v40     C126,161.523,121.523,166,116,166z M76,146h30v-20H76V146z"></path></g><g><path d="M116,246H66c-5.523,0-10-4.477-10-10v-40c0-5.523,4.477-10,10-10h50c5.523,0,10,4.477,10,10v40     C126,241.523,121.523,246,116,246z M76,226h30v-20H76V226z"></path></g><g><path d="M116,326H66c-5.523,0-10-4.478-10-10v-40c0-5.522,4.477-10,10-10h50c5.523,0,10,4.478,10,10v40     C126,321.522,121.523,326,116,326z M76,306h30v-20H76V306z"></path></g><g><path d="M116,406H66c-5.523,0-10-4.478-10-10v-40c0-5.522,4.477-10,10-10h50c5.523,0,10,4.478,10,10v40     C126,401.522,121.523,406,116,406z M76,386h30v-20H76V386z"></path></g><g><path d="M116,486H66c-5.523,0-10-4.478-10-10v-40c0-5.522,4.477-10,10-10h50c5.523,0,10,4.478,10,10v40     C126,481.522,121.523,486,116,486z M76,466h30v-20H76V466z"></path></g><g><path d="M66,66H26c-5.523,0-10-4.477-10-10s4.477-10,10-10h40c5.523,0,10,4.477,10,10S71.523,66,66,66z"></path></g><g><path d="M66,146H26c-5.523,0-10-4.477-10-10s4.477-10,10-10h40c5.523,0,10,4.477,10,10S71.523,146,66,146z"></path></g><g><path d="M66,226H26c-5.523,0-10-4.477-10-10s4.477-10,10-10h40c5.523,0,10,4.477,10,10S71.523,226,66,226z"></path></g><g><path d="M66,306H26c-5.523,0-10-4.478-10-10s4.477-10,10-10h40c5.523,0,10,4.478,10,10S71.523,306,66,306z"></path></g><g><path d="M66,386H26c-5.523,0-10-4.478-10-10s4.477-10,10-10h40c5.523,0,10,4.478,10,10S71.523,386,66,386z"></path></g><g><path d="M66,466H26c-5.523,0-10-4.478-10-10s4.477-10,10-10h40c5.523,0,10,4.478,10,10S71.523,466,66,466z"></path></g><g><path d="M316,166H196c-5.523,0-10-4.477-10-10v-50c0-5.523,4.477-10,10-10h120c5.522,0,10,4.477,10,10v50     C326,161.523,321.522,166,316,166z M206,146h100v-30H206V146z"></path></g><g><path d="M316,246H196c-5.523,0-10-4.477-10-10v-40c0-5.523,4.477-10,10-10h120c5.522,0,10,4.477,10,10v40     C326,241.523,321.522,246,316,246z M206,226h100v-20H206V226z"></path></g><g><path d="M316,326H196c-5.523,0-10-4.478-10-10v-40c0-5.522,4.477-10,10-10h120c5.522,0,10,4.478,10,10v40     C326,321.522,321.522,326,316,326z M206,306h100v-20H206V306z"></path></g><g><path d="M316,416H196c-5.523,0-10-4.478-10-10v-50c0-5.522,4.477-10,10-10h120c5.522,0,10,4.478,10,10v50     C326,411.522,321.522,416,316,416z M206,396h100v-30H206V396z"></path></g></g></g></svg></g><line x1="41" y1="1" x2="41" y2="28" stroke="#000000" stroke-linecap="round"></line><path fill="#000000" fill-rule="nonzero" d="M6.05 16.97L3.34 16.97Q3.24 16.97 3.24 16.85L3.24 16.85L3.24 3.17L0.12 3.17Q0 3.17 0 3.05L0 3.05L0.02 0.36Q0.02 0.26 0.12 0.26L0.12 0.26L9.24 0.26Q9.36 0.26 9.36 0.36L9.36 0.36L9.36 3.05Q9.36 3.17 9.26 3.17L9.26 3.17L6.12 3.17L6.14 16.85Q6.14 16.97 6.05 16.97L6.05 16.97ZM18.38 16.97L10.63 16.97Q10.54 16.97 10.54 16.85L10.54 16.85L10.56 0.36Q10.56 0.26 10.66 0.26L10.66 0.26L18.36 0.26Q18.46 0.26 18.46 0.38L18.46 0.38L18.46 3.07Q18.46 3.17 18.36 3.17L18.36 3.17L13.44 3.17L13.44 6.91L18.36 6.91Q18.46 6.91 18.46 7.01L18.46 7.01L18.48 9.72Q18.48 9.82 18.38 9.82L18.38 9.82L13.44 9.82L13.44 14.02L18.38 14.02Q18.48 14.02 18.48 14.14L18.48 14.14L18.48 16.87Q18.48 16.97 18.38 16.97L18.38 16.97ZM24.65 17.21L24.65 17.21Q23.33 17.21 22.26 16.55Q21.19 15.89 20.57 14.78Q19.94 13.68 19.94 12.31L19.94 12.31L19.97 4.82Q19.97 3.50 20.58 2.41Q21.19 1.32 22.26 0.66Q23.33 0 24.65 0L24.65 0Q25.97 0 27.02 0.65Q28.08 1.30 28.70 2.39Q29.33 3.48 29.33 4.82L29.33 4.82L29.33 5.93Q29.33 6.02 29.23 6.02L29.23 6.02L26.54 6.02Q26.45 6.02 26.45 5.93L26.45 5.93L26.45 4.82Q26.45 4.03 25.93 3.46Q25.42 2.88 24.65 2.88L24.65 2.88Q23.78 2.88 23.33 3.47Q22.87 4.06 22.87 4.82L22.87 4.82L22.87 12.31Q22.87 13.20 23.39 13.75Q23.90 14.30 24.65 14.30L24.65 14.30Q25.42 14.30 25.93 13.69Q26.45 13.08 26.45 12.31L26.45 12.31L26.45 11.21Q26.45 11.11 26.54 11.11L26.54 11.11L29.26 11.11Q29.35 11.11 29.35 11.21L29.35 11.21L29.35 12.31Q29.35 13.68 28.72 14.78Q28.08 15.89 27.02 16.55Q25.97 17.21 24.65 17.21ZM33.91 16.97L31.20 16.97Q31.10 16.97 31.10 16.85L31.10 16.85L31.13 0.36Q31.13 0.26 31.25 0.26L31.25 0.26L33.91 0.26Q34.03 0.26 34.03 0.36L34.03 0.36L34.01 6.89L37.61 6.89L37.61 0.36Q37.61 0.26 37.70 0.26L37.70 0.26L40.37 0.26Q40.49 0.26 40.49 0.36L40.49 0.36L40.54 16.85Q40.54 16.97 40.42 16.97L40.42 16.97L37.73 16.97Q37.61 16.97 37.61 16.85L37.61 16.85L37.61 9.79L34.01 9.79L34.01 16.85Q34.01 16.97 33.91 16.97L33.91 16.97ZM48.86 16.97L46.18 16.97Q46.06 16.97 46.06 16.85L46.06 16.85L46.10 0.36Q46.10 0.26 46.20 0.26L46.20 0.26L53.88 0.26Q54 0.26 54 0.36L54 0.36L54 3.07Q54 3.17 53.90 3.17L53.90 3.17L48.98 3.17L48.98 6.89L53.90 6.89Q54 6.89 54 7.01L54 7.01L54.02 9.72Q54.02 9.82 53.90 9.82L53.90 9.82L48.98 9.82L48.98 16.85Q48.98 16.97 48.86 16.97L48.86 16.97ZM59.74 17.21L59.74 17.21Q58.44 17.21 57.37 16.55Q56.30 15.89 55.66 14.80Q55.01 13.70 55.01 12.38L55.01 12.38L55.03 4.78Q55.03 3.46 55.67 2.38Q56.30 1.30 57.38 0.65Q58.46 0 59.74 0L59.74 0Q61.03 0 62.09 0.65Q63.14 1.30 63.78 2.38Q64.42 3.46 64.42 4.78L64.42 4.78L64.44 12.38Q64.44 13.70 63.80 14.80Q63.17 15.89 62.10 16.55Q61.03 17.21 59.74 17.21ZM59.74 14.30L59.74 14.30Q60.46 14.30 61.00 13.72Q61.54 13.13 61.54 12.38L61.54 12.38L61.51 4.78Q61.51 3.98 61.01 3.43Q60.50 2.88 59.74 2.88L59.74 2.88Q58.99 2.88 58.46 3.42Q57.94 3.96 57.94 4.78L57.94 4.78L57.94 12.38Q57.94 13.18 58.46 13.74Q58.99 14.30 59.74 14.30ZM69.07 16.97L66.36 16.97Q66.26 16.97 66.26 16.85L66.26 16.85L66.31 0.36Q66.31 0.26 66.41 0.26L66.41 0.26L71.26 0.26Q72.55 0.26 73.64 0.90Q74.74 1.54 75.38 2.60Q76.03 3.67 76.03 5.02L76.03 5.02Q76.03 5.90 75.77 6.61Q75.50 7.32 75.14 7.81Q74.78 8.30 74.50 8.54L74.50 8.54Q75.79 9.98 75.79 11.93L75.79 11.93L75.82 16.85Q75.82 16.97 75.70 16.97L75.70 16.97L72.98 16.97Q72.89 16.97 72.89 16.90L72.89 16.90L72.89 11.93Q72.89 11.06 72.28 10.43Q71.66 9.79 70.78 9.79L70.78 9.79L69.19 9.79L69.17 16.85Q69.17 16.97 69.07 16.97L69.07 16.97ZM69.19 3.14L69.19 6.91L71.26 6.91Q72 6.91 72.58 6.36Q73.15 5.81 73.15 5.02L73.15 5.02Q73.15 4.25 72.59 3.70Q72.02 3.14 71.26 3.14L71.26 3.14L69.19 3.14ZM86.50 16.97L83.78 16.97Q83.69 16.97 83.69 16.85L83.69 16.85L83.69 3.17L80.57 3.17Q80.45 3.17 80.45 3.05L80.45 3.05L80.47 0.36Q80.47 0.26 80.57 0.26L80.57 0.26L89.69 0.26Q89.81 0.26 89.81 0.36L89.81 0.36L89.81 3.05Q89.81 3.17 89.71 3.17L89.71 3.17L86.57 3.17L86.59 16.85Q86.59 16.97 86.50 16.97L86.50 16.97ZM95.18 17.21L95.18 17.21Q93.89 17.21 92.82 16.55Q91.75 15.89 91.10 14.80Q90.46 13.70 90.46 12.38L90.46 12.38L90.48 4.78Q90.48 3.46 91.12 2.38Q91.75 1.30 92.83 0.65Q93.91 0 95.18 0L95.18 0Q96.48 0 97.54 0.65Q98.59 1.30 99.23 2.38Q99.86 3.46 99.86 4.78L99.86 4.78L99.89 12.38Q99.89 13.70 99.25 14.80Q98.62 15.89 97.55 16.55Q96.48 17.21 95.18 17.21ZM95.18 14.30L95.18 14.30Q95.90 14.30 96.44 13.72Q96.98 13.13 96.98 12.38L96.98 12.38L96.96 4.78Q96.96 3.98 96.46 3.43Q95.95 2.88 95.18 2.88L95.18 2.88Q94.44 2.88 93.91 3.42Q93.38 3.96 93.38 4.78L93.38 4.78L93.38 12.38Q93.38 13.18 93.91 13.74Q94.44 14.30 95.18 14.30ZM106.13 16.94L101.83 16.97Q101.71 16.97 101.71 16.85L101.71 16.85L101.76 0.36Q101.76 0.26 101.86 0.26L101.86 0.26L106.34 0.24Q107.66 0.22 108.76 0.86Q109.85 1.51 110.50 2.60Q111.14 3.70 111.14 5.02L111.14 5.02L111.14 11.90Q111.14 13.30 110.47 14.44Q109.80 15.58 108.67 16.25Q107.54 16.92 106.13 16.94L106.13 16.94ZM104.66 3.14L104.64 14.02L106.13 14.02Q107.02 14.02 107.63 13.39Q108.24 12.77 108.24 11.90L108.24 11.90L108.24 4.99Q108.24 4.22 107.68 3.66Q107.11 3.10 106.34 3.12L106.34 3.12L104.66 3.14ZM111.50 16.85L111.50 16.85L114.48 0.36Q114.50 0.26 114.60 0.26L114.60 0.26L118.08 0.26Q118.18 0.26 118.20 0.36L118.20 0.36L121.06 16.85Q121.08 16.97 120.96 16.97L120.96 16.97L118.30 16.97Q118.20 16.97 118.18 16.85L118.18 16.85L117.91 15.10L114.65 15.10L114.38 16.85Q114.36 16.97 114.26 16.97L114.26 16.97L111.60 16.97Q111.50 16.97 111.50 16.85ZM116.21 5.78L115.13 12.53L117.43 12.53L116.45 5.78L116.30 4.90L116.21 5.78ZM126.50 16.97L123.74 16.97Q123.67 16.97 123.67 16.87L123.67 16.87L123.70 10.06L120.48 0.36Q120.46 0.26 120.55 0.26L120.55 0.26L123.22 0.26Q123.34 0.26 123.36 0.36L123.36 0.36L125.14 6.82L126.94 0.36Q126.96 0.26 127.06 0.26L127.06 0.26L129.74 0.26Q129.84 0.26 129.82 0.36L129.82 0.36L126.58 9.96L126.60 16.87Q126.60 16.97 126.50 16.97L126.50 16.97Z" transform="translate(51, 6.016)"></path></svg>